<?xml version="1.0" encoding="UTF-8" ?>
<svg
    width="410px"
    height="382px"
    viewBox="0 0 410 382"
    version="1.1"
    xmlns="http://www.w3.org/2000/svg"
  >
    <g
      id="Page-1"
      stroke="none"
      stroke-width="1"
      fill="none"
      fill-rule="evenodd"
    >
      <g
        id="noun-console-1154335"
        transform="translate(-74.468550, 0.602000)"
        fill="#ffffff"
        fill-rule="nonzero"
      >
        <path
          d="M425.06855,0 L133.86855,0 C101.38855,0 75.06755,26.32 75.06755,58.801 L75.06755,322.001 C75.06755,354.478 101.39155,380.798 133.86855,380.798 L425.06855,380.798 C457.54855,380.798 483.86955,354.478 483.86955,321.997 L483.86955,58.797 C483.86955,26.32 457.54955,0 425.07255,0 L425.06855,0 Z M241.94855,240.8 L180.34655,296.8 C174.74495,301.8391 165.78755,301.2805 160.74455,295.1203 C155.70545,289.5187 156.26405,281.1203 161.86565,276.0813 L212.26365,230.1593 L161.86565,184.2373 C156.26405,178.6357 156.26405,170.2373 161.30706,164.6353 C166.34616,159.0337 174.74806,159.0337 180.34606,163.5142 L241.94806,219.5142 C247.54966,224.5533 248.10826,233.5142 243.06916,239.1162 C242.50666,239.68261 242.50666,240.2412 241.94806,240.7998 L241.94855,240.8 Z M385.86855,310.8 L266.58855,310.8 C258.74875,310.8 252.58855,304.6398 252.58855,296.8 C252.58855,288.9602 258.74875,282.8 266.58855,282.8 L385.86855,282.8 C393.70835,282.8 399.86855,288.9602 399.86855,296.8 C399.86855,304.6398 393.70835,310.8 385.86855,310.8 Z M455.87055,91.28 L103.06855,91.28 L103.06855,58.8 C103.06855,41.999 117.06855,27.999 133.86955,27.999 L425.06955,27.999 C441.87055,27.999 455.87055,41.999 455.87055,58.8 L455.87055,91.28 Z"
          id="Shape"
        ></path>
      </g>
    </g>
  </svg>
